<?xml version="1.0" encoding="UTF-8" standalone="no"?>
<svg
   id="svg8"
   version="1.1"
   viewBox="0 0 64 64"
   height="64"
   width="64"
   xmlns="http://www.w3.org/2000/svg"
   xmlns:svg="http://www.w3.org/2000/svg"
   xmlns:rdf="http://www.w3.org/1999/02/22-rdf-syntax-ns#"
   xmlns:cc="http://creativecommons.org/ns#"
   xmlns:dc="http://purl.org/dc/elements/1.1/">
  <defs
     id="defs2" />
  <metadata
     id="metadata5">
    <rdf:RDF>
      <cc:Work
         rdf:about="">
        <dc:format>image/svg+xml</dc:format>
        <dc:type
           rdf:resource="http://purl.org/dc/dcmitype/StillImage" />
      </cc:Work>
    </rdf:RDF>
  </metadata>
  <g
     id="layer2"
     style="display:inline"
     transform="translate(-256,-192)">
    <g
       id="use5871">
      <title
         id="title35463">Dirt/Gravel (Difficulty 4)</title>
      <rect
         style="opacity:1;fill:#ff5454;fill-opacity:1;stroke:none;stroke-width:6;stroke-linecap:butt;stroke-linejoin:bevel;stroke-miterlimit:10;stroke-dasharray:none;paint-order:stroke markers fill"
         id="rect35465"
         width="64"
         height="64"
         x="256"
         y="192" />
      <circle
         style="fill:#000000;fill-opacity:1;stroke-width:15.1181;stroke-linecap:round;stroke-linejoin:round;stroke-miterlimit:10;paint-order:stroke markers fill"
         id="circle35467"
         cx="296"
         cy="216"
         r="4" />
      <circle
         style="fill:#000000;fill-opacity:1;stroke-width:15.1181;stroke-linecap:round;stroke-linejoin:round;stroke-miterlimit:10;paint-order:stroke markers fill"
         id="circle35469"
         cx="280"
         cy="232"
         r="4" />
      <circle
         style="fill:#000000;fill-opacity:1;stroke-width:15.1181;stroke-linecap:round;stroke-linejoin:round;stroke-miterlimit:10;paint-order:stroke markers fill"
         id="circle35471"
         cx="296"
         cy="232"
         r="4" />
      <circle
         style="fill:#000000;fill-opacity:1;stroke-width:15.1181;stroke-linecap:round;stroke-linejoin:round;stroke-miterlimit:10;paint-order:stroke markers fill"
         id="circle35473"
         cx="280"
         cy="216"
         r="4" />
      <path
         id="path35475"
         style="opacity:1;fill:#ffb380;fill-opacity:1;stroke:none;stroke-width:6;stroke-linecap:butt;stroke-linejoin:bevel;stroke-miterlimit:10;stroke-dasharray:none;paint-order:stroke markers fill"
         d="m 256,192 v 3.80078 A 4,4 0 0 0 259,192 Z m 5,0 a 4,4 0 0 0 4,4 4,4 0 0 0 4,-4 z m 10,0 a 4,4 0 0 0 4,4 4,4 0 0 0 4,-4 z m 10,0 a 4,4 0 0 0 4,4 4,4 0 0 0 4,-4 z m 10,0 a 4,4 0 0 0 4,4 4,4 0 0 0 4,-4 z m 10,0 a 4,4 0 0 0 4,4 4,4 0 0 0 4,-4 z m 10,0 a 4,4 0 0 0 4,4 4,4 0 0 0 4,-4 z m -50,4 a 4,4 0 0 0 -4,4 4,4 0 0 0 4,4 4,4 0 0 0 4,-4 4,4 0 0 0 -4,-4 z m 10,0 a 4,4 0 0 0 -4,4 4,4 0 0 0 4,4 4,4 0 0 0 4,-4 4,4 0 0 0 -4,-4 z m 10,0 a 4,4 0 0 0 -4,4 4,4 0 0 0 4,4 4,4 0 0 0 4,-4 4,4 0 0 0 -4,-4 z m 10,0 a 4,4 0 0 0 -4,4 4,4 0 0 0 4,4 4,4 0 0 0 4,-4 4,4 0 0 0 -4,-4 z m 10,0 a 4,4 0 0 0 -4,4 4,4 0 0 0 4,4 4,4 0 0 0 4,-4 4,4 0 0 0 -4,-4 z m 10,0 a 4,4 0 0 0 -4,4 4,4 0 0 0 4,4 4,4 0 0 0 4,-4 4,4 0 0 0 -4,-4 z m 9,0.19922 A 4,4 0 0 0 317,200 a 4,4 0 0 0 3,3.80078 z M 265,204 a 4,4 0 0 0 -4,4 4,4 0 0 0 4,4 4,4 0 0 0 3,-1.42969 V 208 c 0,-0.70318 0.18002,-1.36256 0.49609,-1.93555 A 4,4 0 0 0 265,204 Z m 40,0 a 4,4 0 0 0 -0.3125,0.0625 C 306.57311,204.38706 308,206.01892 308,208 v 2.57031 A 4,4 0 0 0 309,208 a 4,4 0 0 0 -4,-4 z m 10,0 a 4,4 0 0 0 -4,4 4,4 0 0 0 4,4 4,4 0 0 0 4,-4 4,4 0 0 0 -4,-4 z m -59,0.13477 v 7.66601 A 4,4 0 0 0 259,208 4,4 0 0 0 256,204.13477 Z M 261,212 a 4,4 0 0 0 -4,4 4,4 0 0 0 4,4 4,4 0 0 0 4,-4 4,4 0 0 0 -4,-4 z m 50,0 a 4,4 0 0 0 -3,1.42969 v 5.14062 a 4,4 0 0 0 3,1.42969 4,4 0 0 0 4,-4 4,4 0 0 0 -4,-4 z m 9,0.19922 A 4,4 0 0 0 317,216 a 4,4 0 0 0 3,3.80078 z m -52,1.23047 A 4,4 0 0 0 267,216 a 4,4 0 0 0 1,2.57031 z M 265,220 a 4,4 0 0 0 -4,4 4,4 0 0 0 4,4 4,4 0 0 0 3,-1.42969 v -5.20312 A 4,4 0 0 0 265,220 Z m 50,0 a 4,4 0 0 0 -4,4 4,4 0 0 0 4,4 4,4 0 0 0 4,-4 4,4 0 0 0 -4,-4 z m -59,0.13477 v 7.66601 A 4,4 0 0 0 259,224 a 4,4 0 0 0 -3,-3.86523 z m 52,1.23242 v 5.20312 A 4,4 0 0 0 309,224 4,4 0 0 0 308,221.36719 Z M 261,228 a 4,4 0 0 0 -4,4 4,4 0 0 0 4,4 4,4 0 0 0 4,-4 4,4 0 0 0 -4,-4 z m 50,0 a 4,4 0 0 0 -3,1.42969 v 5.14062 a 4,4 0 0 0 3,1.42969 4,4 0 0 0 4,-4 4,4 0 0 0 -4,-4 z m 9,0.19922 A 4,4 0 0 0 317,232 a 4,4 0 0 0 3,3.80078 z m -52,1.23047 A 4,4 0 0 0 267,232 a 4,4 0 0 0 1,2.57031 z M 265,236 a 4,4 0 0 0 -4,4 4,4 0 0 0 4,4 4,4 0 0 0 3.46484,-2.12305 C 268.16843,241.31773 268,240.6794 268,240 v -2.63281 A 4,4 0 0 0 265,236 Z m 50,0 a 4,4 0 0 0 -4,4 4,4 0 0 0 4,4 4,4 0 0 0 4,-4 4,4 0 0 0 -4,-4 z m -59,0.13477 v 7.66601 A 4,4 0 0 0 259,240 a 4,4 0 0 0 -3,-3.86523 z m 52,1.23242 V 240 c 0,1.98108 -1.42689,3.61294 -3.3125,3.9375 A 4,4 0 0 0 305,244 a 4,4 0 0 0 4,-4 4,4 0 0 0 -1,-2.63281 z M 261,244 a 4,4 0 0 0 -4,4 4,4 0 0 0 4,4 4,4 0 0 0 4,-4 4,4 0 0 0 -4,-4 z m 10,0 a 4,4 0 0 0 -4,4 4,4 0 0 0 4,4 4,4 0 0 0 4,-4 4,4 0 0 0 -4,-4 z m 10,0 a 4,4 0 0 0 -4,4 4,4 0 0 0 4,4 4,4 0 0 0 4,-4 4,4 0 0 0 -4,-4 z m 10,0 a 4,4 0 0 0 -4,4 4,4 0 0 0 4,4 4,4 0 0 0 4,-4 4,4 0 0 0 -4,-4 z m 10,0 a 4,4 0 0 0 -4,4 4,4 0 0 0 4,4 4,4 0 0 0 4,-4 4,4 0 0 0 -4,-4 z m 10,0 a 4,4 0 0 0 -4,4 4,4 0 0 0 4,4 4,4 0 0 0 4,-4 4,4 0 0 0 -4,-4 z m 9,0.19922 A 4,4 0 0 0 317,248 a 4,4 0 0 0 3,3.80078 z M 265,252 a 4,4 0 0 0 -4,4 h 8 a 4,4 0 0 0 -4,-4 z m 10,0 a 4,4 0 0 0 -4,4 h 8 a 4,4 0 0 0 -4,-4 z m 10,0 a 4,4 0 0 0 -4,4 h 8 a 4,4 0 0 0 -4,-4 z m 10,0 a 4,4 0 0 0 -4,4 h 8 a 4,4 0 0 0 -4,-4 z m 10,0 a 4,4 0 0 0 -4,4 h 8 a 4,4 0 0 0 -4,-4 z m 10,0 a 4,4 0 0 0 -4,4 h 8 a 4,4 0 0 0 -4,-4 z m -59,0.13477 V 256 h 3 a 4,4 0 0 0 -3,-3.86523 z" />
    </g>
  </g>
</svg>
