<?xml version="1.0" encoding="UTF-8" standalone="no"?>
<svg
   id="svg8"
   version="1.1"
   viewBox="0 0 64 64"
   height="64"
   width="64"
   xmlns="http://www.w3.org/2000/svg"
   xmlns:svg="http://www.w3.org/2000/svg"
   xmlns:rdf="http://www.w3.org/1999/02/22-rdf-syntax-ns#"
   xmlns:cc="http://creativecommons.org/ns#"
   xmlns:dc="http://purl.org/dc/elements/1.1/">
  <defs
     id="defs2" />
  <metadata
     id="metadata5">
    <rdf:RDF>
      <cc:Work
         rdf:about="">
        <dc:format>image/svg+xml</dc:format>
        <dc:type
           rdf:resource="http://purl.org/dc/dcmitype/StillImage" />
      </cc:Work>
    </rdf:RDF>
  </metadata>
  <g
     id="layer2"
     style="display:inline"
     transform="translate(-64,-128)">
    <g
       id="use2533">
      <title
         id="title35577">Cobbles (Difficulty 1)</title>
      <rect
         style="opacity:1;fill:#54ff98;fill-opacity:1;stroke:none;stroke-width:6;stroke-linecap:butt;stroke-linejoin:bevel;stroke-miterlimit:10;stroke-dasharray:none;paint-order:stroke markers fill"
         id="rect35579"
         width="64"
         height="64"
         x="64"
         y="128" />
      <path
         id="path35581"
         style="opacity:1;fill:#4d4d4d;fill-opacity:1;stroke:none;stroke-width:6;stroke-linecap:butt;stroke-linejoin:bevel;stroke-miterlimit:10;stroke-dasharray:none;paint-order:stroke markers fill"
         d="m 83,128 c 0,2.216 1.784,4 4,4 h 8 c 2.216,0 4,-1.784 4,-4 z m 18,0 v 2 c 0,2.216 1.784,4 4,4 h 8 c 2.216,0 4,-1.784 4,-4 v -2 z m 18,0 v 4 c 0,2.216 1.784,4 4,4 h 5 v -8 z m -55,1.375 v 9.25 c 0.61498,-0.70295 1,-1.61334 1,-2.625 v -4 c 0,-1.01166 -0.38502,-1.92205 -1,-2.625 z M 71,130 c -2.216,0 -4,1.784 -4,4 v 4 c 0,2.216 1.784,4 4,4 h 5.53516 c 0.68986,-1.19651 1.97903,-2 3.46484,-2 h 2.44922 C 82.7907,139.41045 83,138.73303 83,138 v -4 c 0,-2.216 -1.784,-4 -4,-4 z m 18,4 c -2.216,0 -4,1.784 -4,4 v 2 h 16 v -2 c 0,-2.216 -1.784,-4 -4,-4 z m 18,2 c -2.216,0 -4,1.784 -4,4 h 9 c 2.216,0 4,1.784 4,4 v 3.86133 c 1.72629,-0.44369 3,-1.99278 3,-3.86133 v -4 c 0,-2.216 -1.784,-4 -4,-4 z m 18,2 c -2.216,0 -4,1.784 -4,4 v 4 c 0,2.216 1.784,4 4,4 h 3 v -12 z m -61,4.13867 v 11.72266 c 1.72629,-0.44369 3,-1.99278 3,-3.86133 v -4 c 0,-1.86855 -1.27371,-3.41764 -3,-3.86133 z M 73,144 c -2.216,0 -4,1.784 -4,4 v 4 c 0,2.216 1.784,4 4,4 h 3 v -12 z m 43,6 v 12 h 1 c 2.216,0 4,-1.784 4,-4 v -4 c 0,-2.216 -1.784,-4 -4,-4 z m 11,2 c -2.216,0 -4,1.784 -4,4 v 4 c 0,2.216 1.784,4 4,4 h 1 v -12 z m -63,4 v 12 h 1 c 2.216,0 4,-1.784 4,-4 v -4 c 0,-2.216 -1.784,-4 -4,-4 z m 11,2 c -2.216,0 -4,1.784 -4,4 v 4 c 0,2.216 1.784,4 4,4 h 1 v -12 z m 41,6 v 12 h 3 c 2.216,0 4,-1.784 4,-4 v -4 c 0,-2.216 -1.784,-4 -4,-4 z m 12,2.13867 c -1.72629,0.44369 -3,1.99278 -3,3.86133 v 4 c 0,1.86855 1.27371,3.41764 3,3.86133 z M 64,170 v 12 h 3 c 2.216,0 4,-1.784 4,-4 v -4 c 0,-2.216 -1.784,-4 -4,-4 z m 12,2.13867 c -1.72629,0.44369 -3,1.99278 -3,3.86133 v 4 c 0,2.216 1.784,4 4,4 h 8 c 2.216,0 4,-1.784 4,-4 h -9 c -2.216,0 -4,-1.784 -4,-4 z M 115.46484,178 c -0.68986,1.19651 -1.97903,2 -3.46484,2 h -2.44922 C 109.2093,180.58955 109,181.26697 109,182 v 4 c 0,2.216 1.784,4 4,4 h 8 c 2.216,0 4,-1.784 4,-4 v -4 c 0,-2.216 -1.784,-4 -4,-4 z M 91,180 v 4 c 0,2.216 1.784,4 4,4 h 8 c 2.216,0 4,-1.784 4,-4 v -4 z m 37,1.375 c -0.61498,0.70295 -1,1.61334 -1,2.625 v 4 c 0,1.01166 0.38502,1.92205 1,2.625 z M 64,184 v 8 h 9 v -4 c 0,-2.216 -1.784,-4 -4,-4 z m 15,2 c -2.216,0 -4,1.784 -4,4 v 2 h 16 v -2 c 0,-2.216 -1.784,-4 -4,-4 z m 18,4 c -1.48297,0 -2.75838,0.80729 -3.44922,2 h 14.89844 c -0.69084,-1.19271 -1.96625,-2 -3.44922,-2 z" />
      <circle
         style="fill:#000000;fill-opacity:1;stroke-width:15.1181;stroke-linecap:round;stroke-linejoin:round;stroke-miterlimit:10;paint-order:stroke markers fill"
         id="circle35583"
         cx="96"
         cy="160"
         r="4" />
    </g>
  </g>
</svg>
